HIERARCHY
ROOT pelvis
{
  OFFSET 0 100 0
  CHANNELS 6 Xposition Yposition Zposition Zrotation Xrotation Yrotation
  JOINT pelvis_right_femur
  {
    OFFSET -10.78128 -3.44521 -0.5502486
    CHANNELS 3 Zrotation Xrotation Yrotation
    JOINT right_femur_tibia
    {
      OFFSET -0.8047443 -44.0398 -0.1307829
      CHANNELS 3 Zrotation Xrotation Yrotation
      JOINT right_tibia_foot
      {
        OFFSET 3.006224 -47.83518 -5
        CHANNELS 3 Zrotation Xrotation Yrotation
        End Site
        {
          OFFSET 0 -5 15
        }
      }
    }
  }
  JOINT pelvis_left_femur
  {
    OFFSET 10.78128 -3.44521 -0.5502486
    CHANNELS 3 Zrotation Xrotation Yrotation
    JOINT left_femur_tibia
    {
      OFFSET 0.8047443 -44.0398 -0.1307829
      CHANNELS 3 Zrotation Xrotation Yrotation
      JOINT left_tibia_foot
      {
        OFFSET -4.370144 -48.10324 -4.275266
        CHANNELS 3 Zrotation Xrotation Yrotation
        End Site
        {
          OFFSET 0 -5 15
        }
      }
    }
  }
  JOINT pelvis_spine1
  {
    OFFSET 0 6.468898 -3.129235
    CHANNELS 3 Zrotation Xrotation Yrotation
    JOINT spine1
    {
      OFFSET 0 23.15396 4.99043
      CHANNELS 3 Zrotation Xrotation Yrotation
      JOINT spine2
      {
        OFFSET 0 20.79997 -5.064912
        CHANNELS 3 Zrotation Xrotation Yrotation
        JOINT neck
        {
          OFFSET 0 14.38658 9.616178
          CHANNELS 3 Zrotation Xrotation Yrotation
          End Site
          {
            OFFSET 0 20 0
          }
        }
      }
      JOINT right_manubrium
      {
        OFFSET -5.722621 16.35077 3.967754
        CHANNELS 3 Zrotation Xrotation Yrotation
        JOINT right_clavicle
        {
          OFFSET -13.16364 1.694482 -4.693211
          CHANNELS 3 Zrotation Xrotation Yrotation
          JOINT right_humerus
          {
            OFFSET -28.5034 -0.3100689 -2.792744
            CHANNELS 3 Zrotation Xrotation Yrotation
            JOINT right_radius
            {
              OFFSET -25.15693 0.02248979 -1.271978
              CHANNELS 3 Zrotation Xrotation Yrotation
              End Site
              {
                OFFSET -15 0 0
              }
            }
          }
        }
      }
      JOINT left_manubrium
      {
        OFFSET 5.722621 16.35077 3.967754
        CHANNELS 3 Zrotation Xrotation Yrotation
        JOINT left_clavicle
        {
          OFFSET 13.16364 1.694482 -4.693211
          CHANNELS 3 Zrotation Xrotation Yrotation
          JOINT left_humerus
          {
            OFFSET 29.39168 -1.063119 -2.237045
            CHANNELS 3 Zrotation Xrotation Yrotation
            JOINT left_radius
            {
              OFFSET 24.59957 -0.9528479 0.9047498
              CHANNELS 3 Zrotation Xrotation Yrotation
              End Site
              {
                OFFSET 15 -0 -0
              }
            }
          }
        }
      }
    }
  }
}
MOTION
Frames: 23
Frame Time: 0.0416666666667
-284.5591 126.657 -181.4726 11.37987 -6.453007 56.04627 5.046897 6.871439 -7.768305 -0 6.089217 -0 -9.394966 4.43843 -0.3278793 0.1122462 -5.64436 -3.821372 -0 21.30064 -0 -1.120734 -9.634661 10.96442 1.277708 -4.35718 5.587362 -0.4888299 15.63371 -4.407153 2.532894 23.73965 0.7263101 0.2840443 -17.63308 3.034017 -5.168685 -28.2494 12.53929 96.23891 -0.5734039 -12.59193 -0 0 17.87597 -32.13885 14.34815 19.68925 2.096229 -24.49932 -13.99256 -97.3765 17.36575 29.89852 0 0 -11.86099 -4.211409 23.09253 17.53885
-279.3307 126.6107 -178.6542 11.30608 -6.582563 55.39624 5.046897 6.871439 -7.768305 -0 6.089217 -0 -9.394966 4.43843 -0.3278793 0.1122462 -5.64436 -3.821372 -0 21.30064 -0 -1.120734 -9.634661 10.96442 1.277708 -4.35718 5.587362 -0.4888299 15.63371 -4.407153 2.532894 23.73965 0.7263101 0.2840444 -17.63308 3.034017 -5.168685 -28.2494 12.53929 96.23891 -0.573404 -12.59193 -0 0 17.87597 -32.13885 14.34815 19.68925 2.096229 -24.49932 -13.99256 -97.3765 17.36575 29.89852 0 0 -11.86099 -4.211409 23.09253 17.53885
-274.135 126.5643 -175.7758 11.2308 -6.711278 54.74586 5.046897 6.871439 -7.768305 -0 6.089217 -0 -9.394966 4.43843 -0.3278793 0.1122462 -5.64436 -3.821372 -0 21.30064 -0 -1.120734 -9.634661 10.96442 1.277708 -4.35718 5.587362 -0.4888299 15.63371 -4.407153 2.532894 23.73965 0.7263101 0.2840444 -17.63308 3.034017 -5.168685 -28.2494 12.53929 96.23891 -0.573404 -12.59193 -0 0 17.87597 -32.13885 14.34815 19.68925 2.096229 -24.49932 -13.99256 -97.3765 17.36575 29.89852 0 0 -11.86099 -4.211409 23.09253 17.53885
-268.9728 126.5179 -172.838 11.15403 -6.839137 54.09514 5.046897 6.871439 -7.768305 -0 6.089217 -0 -9.394966 4.43843 -0.3278793 0.1122462 -5.64436 -3.821372 -0 21.30064 -0 -1.120734 -9.634661 10.96442 1.277708 -4.35718 5.587362 -0.4888299 15.63371 -4.407153 2.532894 23.73965 0.7263101 0.2840444 -17.63308 3.034017 -5.168685 -28.2494 12.53929 96.23891 -0.573404 -12.59193 -0 0 17.87597 -32.13885 14.34815 19.68925 2.096229 -24.49932 -13.99256 -97.3765 17.36575 29.89852 0 0 -11.86099 -4.211409 23.09253 17.53885
-263.8446 126.4715 -169.8409 11.07578 -6.966121 53.44408 5.046897 6.871439 -7.768305 -0 6.089217 -0 -9.394966 4.43843 -0.3278793 0.1122462 -5.64436 -3.821372 -0 21.30064 -0 -1.120734 -9.634661 10.96442 1.277708 -4.35718 5.587362 -0.4888299 15.63371 -4.407153 2.532894 23.73965 0.7263101 0.2840444 -17.63308 3.034017 -5.168685 -28.2494 12.53929 96.23891 -0.573404 -12.59193 -0 0 17.87597 -32.13885 14.34815 19.68925 2.096229 -24.49932 -13.99256 -97.3765 17.36575 29.89852 0 0 -11.86099 -4.211409 23.09253 17.53885
-258.7513 126.4251 -166.7851 10.99606 -7.092213 52.79266 5.046897 6.871439 -7.768305 -0 6.089217 -0 -9.394966 4.43843 -0.3278793 0.1122462 -5.64436 -3.821372 -0 21.30064 -0 -1.120734 -9.634661 10.96442 1.277708 -4.35718 5.587362 -0.4888299 15.63371 -4.407153 2.532894 23.73965 0.7263101 0.2840444 -17.63308 3.034017 -5.168685 -28.2494 12.53929 96.23891 -0.573404 -12.59193 -0 0 17.87597 -32.13885 14.34815 19.68925 2.096229 -24.49932 -13.99256 -97.3765 17.36575 29.89852 0 0 -11.86099 -4.211409 23.09253 17.53885
-253.6934 126.3787 -163.671 10.91488 -7.217398 52.14089 5.046897 6.871439 -7.768305 -0 6.089217 -0 -9.394967 4.43843 -0.3278793 0.1122462 -5.64436 -3.821372 -0 21.30064 -0 -1.120734 -9.634661 10.96442 1.277708 -4.35718 5.587362 -0.4888299 15.63371 -4.407153 2.532894 23.73965 0.7263101 0.2840444 -17.63308 3.034017 -5.168685 -28.2494 12.53929 96.23891 -0.573404 -12.59193 -0 0 17.87597 -32.13885 14.34815 19.68925 2.096229 -24.49932 -13.99256 -97.3765 17.36575 29.89852 0 0 -11.86099 -4.211409 23.09253 17.53885
-248.6717 126.3324 -160.4989 10.83225 -7.341659 51.48876 5.046897 6.871439 -7.768305 -0 6.089217 -0 -9.394967 4.43843 -0.3278793 0.1122462 -5.64436 -3.821372 -0 21.30064 -0 -1.120734 -9.634661 10.96442 1.277708 -4.35718 5.587362 -0.4888299 15.63371 -4.407153 2.532894 23.73965 0.7263101 0.2840444 -17.63308 3.034017 -5.168685 -28.2494 12.53929 96.23891 -0.573404 -12.59193 -0 0 17.87597 -32.13885 14.34815 19.68925 2.096229 -24.49932 -13.99256 -97.3765 17.36575 29.89852 0 0 -11.86099 -4.211409 23.09253 17.53885
-243.6867 126.286 -157.2693 10.74818 -7.464978 50.83627 5.046897 6.871439 -7.768305 -0 6.089217 -0 -9.394967 4.43843 -0.3278793 0.1122462 -5.64436 -3.821372 -0 21.30064 -0 -1.120734 -9.634661 10.96442 1.277708 -4.35718 5.587362 -0.4888299 15.63371 -4.407153 2.532894 23.73965 0.7263101 0.2840444 -17.63308 3.034017 -5.168685 -28.2494 12.53929 96.23891 -0.573404 -12.59193 -0 0 17.87597 -32.13885 14.34815 19.68925 2.096229 -24.49932 -13.99256 -97.3765 17.36575 29.89852 0 0 -11.86099 -4.211409 23.09253 17.53885
-238.7393 126.2396 -153.9826 10.66266 -7.587339 50.18341 5.046897 6.871439 -7.768305 -0 6.089217 -0 -9.394967 4.43843 -0.3278793 0.1122462 -5.64436 -3.821372 -0 21.30064 -0 -1.120734 -9.634661 10.96442 1.277708 -4.35718 5.587362 -0.4888299 15.63371 -4.407153 2.532894 23.73965 0.7263101 0.2840444 -17.63308 3.034017 -5.168685 -28.2494 12.53929 96.23891 -0.573404 -12.59194 -0 0 17.87597 -32.13885 14.34815 19.68925 2.096229 -24.49932 -13.99256 -97.3765 17.36575 29.89852 0 0 -11.86099 -4.211409 23.09253 17.53885
-233.8299 126.1932 -150.6392 10.57573 -7.708726 49.53018 5.046897 6.871439 -7.768305 -0 6.089217 -0 -9.394967 4.43843 -0.3278793 0.1122462 -5.64436 -3.821372 -0 21.30064 -0 -1.120734 -9.634661 10.96442 1.277708 -4.35718 5.587362 -0.4888299 15.63371 -4.407153 2.532894 23.73965 0.7263101 0.2840444 -17.63308 3.034017 -5.168685 -28.2494 12.53929 96.23891 -0.573404 -12.59194 -0 0 17.87597 -32.13885 14.34815 19.68925 2.096229 -24.49932 -13.99256 -97.3765 17.36575 29.89852 0 0 -11.86099 -4.211409 23.09253 17.53885
-228.9593 126.1468 -147.2396 10.48737 -7.829123 48.87657 5.046897 6.871439 -7.768305 -0 6.089217 -0 -9.394967 4.43843 -0.3278793 0.1122462 -5.64436 -3.821372 -0 21.30064 -0 -1.120734 -9.634661 10.96442 1.277708 -4.35718 5.587362 -0.4888299 15.63371 -4.407153 2.532894 23.73965 0.7263101 0.2840444 -17.63308 3.034017 -5.168685 -28.2494 12.53929 96.23891 -0.573404 -12.59194 -0 0 17.87597 -32.13885 14.34815 19.68925 2.096229 -24.49932 -13.99256 -97.3765 17.36575 29.89852 0 0 -11.86099 -4.211409 23.09253 17.53885
-224.1281 126.1004 -143.7843 10.39761 -7.948513 48.22259 5.046897 6.871439 -7.768305 -0 6.089217 -0 -9.394967 4.43843 -0.3278793 0.1122462 -5.64436 -3.821372 -0 21.30064 -0 -1.120734 -9.634661 10.96442 1.277708 -4.35718 5.587362 -0.4888299 15.63371 -4.407153 2.532894 23.73965 0.7263101 0.2840444 -17.63308 3.034017 -5.168685 -28.2494 12.53929 96.23891 -0.573404 -12.59194 -0 0 17.87597 -32.13885 14.34815 19.68925 2.096229 -24.49932 -13.99256 -97.3765 17.36575 29.89852 0 0 -11.86099 -4.211409 23.09253 17.53885
-219.3369 126.0541 -140.2736 10.30645 -8.06688 47.56823 5.046897 6.871439 -7.768305 -0 6.089217 -0 -9.394967 4.43843 -0.3278793 0.1122462 -5.64436 -3.821372 -0 21.30064 -0 -1.120734 -9.634661 10.96442 1.277708 -4.35718 5.587362 -0.4888299 15.63371 -4.407153 2.532894 23.73965 0.7263101 0.2840444 -17.63308 3.034017 -5.168685 -28.2494 12.53929 96.23891 -0.573404 -12.59194 -0 0 17.87597 -32.13885 14.34815 19.68925 2.096229 -24.49932 -13.99256 -97.3765 17.36575 29.89852 0 0 -11.86099 -4.211409 23.09253 17.53885
-214.5864 126.0077 -136.7081 10.21391 -8.184208 46.91349 5.046897 6.871439 -7.768305 -0 6.089217 -0 -9.394967 4.43843 -0.3278793 0.1122462 -5.64436 -3.821372 -0 21.30064 -0 -1.120734 -9.634661 10.96442 1.277708 -4.35718 5.587362 -0.4888299 15.63371 -4.407153 2.532894 23.73965 0.7263101 0.2840444 -17.63308 3.034017 -5.168685 -28.2494 12.53929 96.23891 -0.573404 -12.59194 -0 0 17.87597 -32.13885 14.34815 19.68925 2.096229 -24.49932 -13.99256 -97.3765 17.36575 29.89852 0 0 -11.86099 -4.211409 23.09253 17.53885
-209.8772 125.9613 -133.0882 10.11999 -8.300481 46.25837 5.046897 6.871439 -7.768305 -0 6.089217 -0 -9.394967 4.43843 -0.3278793 0.1122462 -5.64436 -3.821372 -0 21.30064 -0 -1.120734 -9.634661 10.96442 1.277708 -4.35718 5.587362 -0.4888299 15.63371 -4.407153 2.532894 23.73965 0.7263101 0.2840444 -17.63308 3.034017 -5.168685 -28.2494 12.53929 96.23891 -0.573404 -12.59194 -0 0 17.87597 -32.13885 14.34815 19.68925 2.096229 -24.49932 -13.99256 -97.3765 17.36575 29.89852 0 0 -11.86099 -4.211409 23.09253 17.53885
-205.21 125.9149 -129.4144 10.0247 -8.415684 45.60286 5.046897 6.871439 -7.768305 -0 6.089217 -0 -9.394967 4.43843 -0.3278793 0.1122462 -5.64436 -3.821372 -0 21.30064 -0 -1.120734 -9.634661 10.96442 1.277708 -4.35718 5.587362 -0.4888299 15.63371 -4.407153 2.532894 23.73965 0.7263101 0.2840444 -17.63308 3.034017 -5.168685 -28.2494 12.53929 96.23891 -0.573404 -12.59194 -0 0 17.87597 -32.13885 14.34815 19.68925 2.096229 -24.49932 -13.99256 -97.3765 17.36575 29.89852 0 0 -11.86099 -4.211409 23.09253 17.53885
-200.5853 125.8685 -125.6872 9.928063 -8.5298 44.94696 5.046897 6.871439 -7.768305 -0 6.089217 -0 -9.394967 4.43843 -0.3278793 0.1122462 -5.64436 -3.821372 -0 21.30064 -0 -1.120734 -9.634661 10.96442 1.277708 -4.35718 5.587362 -0.4888299 15.63371 -4.407153 2.532894 23.73965 0.7263101 0.2840444 -17.63308 3.034017 -5.168685 -28.2494 12.53929 96.23891 -0.573404 -12.59194 -0 0 17.87597 -32.13885 14.34815 19.68925 2.096229 -24.49932 -13.99256 -97.3765 17.36575 29.89852 0 0 -11.86099 -4.211409 23.09253 17.53885
-196.0037 125.8221 -121.9071 9.830079 -8.642814 44.29067 5.046897 6.871439 -7.768305 -0 6.089217 -0 -9.394967 4.43843 -0.3278793 0.1122462 -5.64436 -3.821372 -0 21.30064 -0 -1.120734 -9.634661 10.96442 1.277708 -4.35718 5.587362 -0.4888299 15.63371 -4.407153 2.532894 23.73965 0.7263101 0.2840444 -17.63308 3.034017 -5.168685 -28.2494 12.53929 96.23891 -0.573404 -12.59194 -0 0 17.87597 -32.13885 14.34815 19.68925 2.096229 -24.49932 -13.99256 -97.3765 17.36575 29.89852 0 0 -11.86099 -4.211409 23.09253 17.53885
-191.4659 125.7757 -118.0745 9.730762 -8.754711 43.63399 5.046897 6.871439 -7.768305 -0 6.089217 -0 -9.394967 4.43843 -0.3278793 0.1122462 -5.64436 -3.821372 -0 21.30064 -0 -1.120734 -9.634661 10.96442 1.277708 -4.35718 5.587362 -0.4888299 15.63371 -4.407153 2.532894 23.73965 0.7263101 0.2840444 -17.63308 3.034017 -5.168685 -28.2494 12.53929 96.23891 -0.573404 -12.59194 -0 0 17.87597 -32.13885 14.34815 19.68925 2.096229 -24.49932 -13.99256 -97.3765 17.36575 29.89852 0 0 -11.86099 -4.211409 23.09253 17.53885
-186.9725 125.7294 -114.1901 9.630123 -8.865474 42.97691 5.046897 6.871439 -7.768305 -0 6.089217 -0 -9.394967 4.43843 -0.3278793 0.1122462 -5.64436 -3.821372 -0 21.30064 -0 -1.120734 -9.634661 10.96442 1.277708 -4.35718 5.587362 -0.4888299 15.63371 -4.407153 2.532894 23.73965 0.7263101 0.2840444 -17.63308 3.034017 -5.168685 -28.2494 12.53929 96.23891 -0.573404 -12.59194 -0 0 17.87597 -32.13885 14.34815 19.68925 2.096229 -24.49932 -13.99256 -97.3765 17.36575 29.89852 0 0 -11.86099 -4.211409 23.09253 17.53885
-182.524 125.683 -110.2542 9.528175 -8.97509 42.31944 5.046897 6.871439 -7.768305 -0 6.089217 -0 -9.394967 4.43843 -0.3278793 0.1122462 -5.64436 -3.821372 -0 21.30064 -0 -1.120734 -9.634661 10.96442 1.277708 -4.35718 5.587362 -0.4888299 15.63371 -4.407153 2.532894 23.73965 0.7263101 0.2840444 -17.63308 3.034017 -5.168685 -28.2494 12.53929 96.23891 -0.573404 -12.59194 -0 0 17.87597 -32.13885 14.34815 19.68925 2.096229 -24.49932 -13.99256 -97.3765 17.36575 29.89852 0 0 -11.86099 -4.211409 23.09253 17.53885
-178.121 125.6366 -106.2674 9.424929 -9.083542 41.66158 5.046897 6.871439 -7.768305 -0 6.089217 -0 -9.394967 4.43843 -0.3278793 0.1122462 -5.64436 -3.821372 -0 21.30064 -0 -1.120734 -9.634661 10.96442 1.277708 -4.35718 5.587362 -0.4888299 15.63371 -4.407153 2.532894 23.73965 0.7263101 0.2840444 -17.63308 3.034017 -5.168685 -28.2494 12.53929 96.23891 -0.573404 -12.59194 -0 0 17.87597 -32.13885 14.34815 19.68925 2.096229 -24.49932 -13.99256 -97.3765 17.36575 29.89852 0 0 -11.86099 -4.211409 23.09253 17.53885
